# Blender v2.82 (sub 7) OBJ File: ''
# www.blender.org
mtllib robot-with-normals.mtl
o Box
v 0.000000 40.000000 0.000002
v 0.000000 -0.000001 20.000000
v 0.000000 40.000000 20.000002
v 0.000000 0.000000 0.000000
v 70.000000 -0.000001 20.000000
v 70.000000 40.000000 0.000002
v 70.000000 40.000000 20.000002
v 70.000000 0.000000 0.000000
vn -1.0000 0.0000 0.0000
vn 1.0000 0.0000 0.0000
vn 0.0000 -1.0000 -0.0000
vn 0.0000 1.0000 0.0000
vn 0.0000 0.0000 -1.0000
vn 0.0000 -0.0000 1.0000
usemtl color_cccccc.001
s off
f 1//1 2//1 3//1
f 4//1 2//1 1//1
f 5//2 6//2 7//2
f 5//2 8//2 6//2
f 8//3 5//3 4//3
f 4//3 5//3 2//3
f 7//4 6//4 1//4
f 7//4 1//4 3//4
f 1//5 8//5 4//5
f 1//5 6//5 8//5
f 5//6 3//6 2//6
f 7//6 3//6 5//6
o Cylinder
v 49.882759 -10.000001 12.162380
v 50.000000 -10.000000 10.000000
v 50.000000 -0.000000 10.000000
v 49.882759 -0.000001 12.162380
v 49.532410 -10.000001 14.299409
v 49.532410 -0.000001 14.299409
v 48.953064 -10.000001 16.386030
v 48.953064 -0.000001 16.386030
v 48.151508 -10.000001 18.397781
v 48.151508 -0.000001 18.397781
v 47.137142 -10.000001 20.311077
v 47.137142 -0.000001 20.311077
v 45.921860 -10.000001 22.103483
v 45.921860 -0.000001 22.103483
v 44.519909 -10.000001 23.753988
v 44.519909 -0.000001 23.753988
v 42.947727 -10.000001 25.243240
v 42.947727 -0.000001 25.243240
v 41.223740 -10.000001 26.553780
v 41.223740 -0.000001 26.553780
v 39.368168 -10.000001 27.670240
v 39.368168 -0.000001 27.670240
v 37.402763 -10.000001 28.579535
v 37.402763 -0.000001 28.579535
v 35.350567 -10.000001 29.271000
v 35.350567 -0.000001 29.271000
v 33.235641 -10.000001 29.736530
v 33.235641 -0.000001 29.736530
v 31.082779 -10.000001 29.970669
v 31.082779 -0.000001 29.970669
v 28.917221 -10.000001 29.970669
v 28.917221 -0.000001 29.970669
v 26.764360 -10.000001 29.736530
v 26.764360 -0.000001 29.736530
v 24.649433 -10.000001 29.271000
v 24.649433 -0.000001 29.271000
v 22.597237 -10.000001 28.579535
v 22.597237 -0.000001 28.579535
v 20.631830 -10.000001 27.670240
v 20.631830 -0.000001 27.670240
v 18.776258 -10.000001 26.553780
v 18.776258 -0.000001 26.553780
v 17.052275 -10.000001 25.243240
v 17.052275 -0.000001 25.243240
v 15.480090 -10.000001 23.753988
v 15.480090 -0.000001 23.753988
v 14.078139 -10.000001 22.103483
v 14.078139 -0.000001 22.103483
v 12.862856 -10.000001 20.311077
v 12.862856 -0.000001 20.311077
v 11.848492 -10.000001 18.397781
v 11.848492 -0.000001 18.397781
v 11.046937 -10.000001 16.386030
v 11.046937 -0.000001 16.386030
v 10.467589 -10.000001 14.299409
v 10.467589 -0.000001 14.299409
v 10.117241 -10.000001 12.162380
v 10.117241 -0.000001 12.162380
v 10.000000 -10.000000 10.000000
v 10.000000 -0.000000 10.000000
v 10.117241 -10.000000 7.837619
v 10.117241 -0.000000 7.837620
v 10.467589 -10.000000 5.700591
v 10.467589 -0.000000 5.700591
v 11.046937 -10.000000 3.613969
v 11.046937 -0.000000 3.613969
v 11.848492 -10.000000 1.602218
v 11.848492 -0.000000 1.602218
v 12.862856 -10.000000 -0.311077
v 12.862856 0.000000 -0.311077
v 14.078139 -10.000000 -2.103484
v 14.078139 0.000000 -2.103484
v 15.480090 -10.000000 -3.753989
v 15.480090 0.000000 -3.753989
v 17.052275 -10.000000 -5.243241
v 17.052275 0.000000 -5.243241
v 18.776258 -10.000000 -6.553781
v 18.776258 0.000000 -6.553780
v 20.631830 -10.000000 -7.670241
v 20.631830 0.000000 -7.670241
v 22.597237 -10.000000 -8.579534
v 22.597237 0.000000 -8.579534
v 24.649433 -10.000000 -9.271000
v 24.649433 0.000000 -9.271000
v 26.764360 -10.000000 -9.736530
v 26.764360 0.000000 -9.736530
v 28.917221 -10.000000 -9.970668
v 28.917221 0.000000 -9.970668
v 31.082779 -10.000000 -9.970668
v 31.082779 0.000000 -9.970668
v 33.235641 -10.000000 -9.736530
v 33.235641 0.000000 -9.736530
v 35.350567 -10.000000 -9.271000
v 35.350567 0.000000 -9.271000
v 37.402763 -10.000000 -8.579534
v 37.402763 0.000000 -8.579534
v 39.368168 -10.000000 -7.670241
v 39.368168 0.000000 -7.670241
v 41.223740 -10.000000 -6.553781
v 41.223740 0.000000 -6.553780
v 42.947727 -10.000000 -5.243241
v 42.947727 0.000000 -5.243241
v 44.519909 -10.000000 -3.753989
v 44.519909 0.000000 -3.753989
v 45.921860 -10.000000 -2.103484
v 45.921860 0.000000 -2.103484
v 47.137142 -10.000000 -0.311077
v 47.137142 0.000000 -0.311077
v 48.151508 -10.000000 1.602218
v 48.151508 -0.000000 1.602218
v 48.953064 -10.000000 3.613969
v 48.953064 -0.000000 3.613969
v 49.532410 -10.000000 5.700591
v 49.532410 -0.000000 5.700591
v 49.882759 -10.000000 7.837619
v 49.882759 -0.000000 7.837620
vn 0.9985 0.0000 0.0541
vn 0.9868 0.0000 0.1618
vn 0.9636 0.0000 0.2675
vn 0.9290 0.0000 0.3701
vn 0.8835 0.0000 0.4684
vn 0.8277 0.0000 0.5612
vn 0.7622 0.0000 0.6474
vn 0.6877 0.0000 0.7260
vn 0.6052 0.0000 0.7961
vn 0.5156 0.0000 0.8569
vn 0.4199 0.0000 0.9076
vn 0.3193 0.0000 0.9477
vn 0.2150 0.0000 0.9766
vn 0.1081 0.0000 0.9941
vn 0.0000 0.0000 1.0000
vn -0.1081 0.0000 0.9941
vn -0.2150 0.0000 0.9766
vn -0.3193 0.0000 0.9477
vn -0.4199 0.0000 0.9076
vn -0.5156 0.0000 0.8569
vn -0.6052 0.0000 0.7961
vn -0.6877 0.0000 0.7260
vn -0.7622 0.0000 0.6474
vn -0.8277 0.0000 0.5612
vn -0.8835 0.0000 0.4684
vn -0.9290 0.0000 0.3701
vn -0.9635 0.0000 0.2675
vn -0.9868 0.0000 0.1618
vn -0.9985 0.0000 0.0541
vn -0.9985 0.0000 -0.0541
vn -0.9868 -0.0000 -0.1618
vn -0.9636 -0.0000 -0.2675
vn -0.9290 0.0000 -0.3701
vn -0.8835 0.0000 -0.4684
vn -0.8277 0.0000 -0.5612
vn -0.7622 0.0000 -0.6474
vn -0.6877 0.0000 -0.7260
vn -0.6052 -0.0000 -0.7961
vn -0.5156 0.0000 -0.8569
vn -0.4199 -0.0000 -0.9076
vn -0.3193 0.0000 -0.9477
vn -0.2150 0.0000 -0.9766
vn -0.1081 0.0000 -0.9941
vn 0.0000 0.0000 -1.0000
vn 0.1081 0.0000 -0.9941
vn 0.2150 0.0000 -0.9766
vn 0.3193 0.0000 -0.9477
vn 0.4199 0.0000 -0.9076
vn 0.5156 0.0000 -0.8569
vn 0.6052 0.0000 -0.7961
vn 0.6877 0.0000 -0.7260
vn 0.7622 0.0000 -0.6474
vn 0.8277 0.0000 -0.5612
vn 0.8835 0.0000 -0.4684
vn 0.9290 0.0000 -0.3701
vn 0.9636 0.0000 -0.2675
vn 0.9868 0.0000 -0.1618
vn 0.9985 0.0000 -0.0541
vn 0.0000 -1.0000 0.0000
vn 0.0000 1.0000 0.0000
usemtl color_cccccc.001
s off
f 9//7 10//7 11//7
f 9//7 11//7 12//7
f 13//8 9//8 12//8
f 13//8 12//8 14//8
f 15//9 13//9 14//9
f 15//9 14//9 16//9
f 17//10 15//10 16//10
f 17//10 16//10 18//10
f 19//11 17//11 18//11
f 19//11 18//11 20//11
f 21//12 19//12 20//12
f 21//12 20//12 22//12
f 23//13 21//13 22//13
f 23//13 22//13 24//13
f 25//14 23//14 24//14
f 25//14 24//14 26//14
f 27//15 25//15 26//15
f 27//15 26//15 28//15
f 29//16 27//16 28//16
f 29//16 28//16 30//16
f 31//17 29//17 30//17
f 31//17 30//17 32//17
f 33//18 32//18 34//18
f 33//18 31//18 32//18
f 35//19 34//19 36//19
f 35//19 33//19 34//19
f 37//20 36//20 38//20
f 37//20 35//20 36//20
f 39//21 38//21 40//21
f 39//21 37//21 38//21
f 41//22 40//22 42//22
f 41//22 39//22 40//22
f 43//23 42//23 44//23
f 43//23 41//23 42//23
f 45//24 44//24 46//24
f 45//24 43//24 44//24
f 47//25 46//25 48//25
f 47//25 45//25 46//25
f 49//26 48//26 50//26
f 49//26 47//26 48//26
f 51//27 49//27 50//27
f 51//27 50//27 52//27
f 53//28 51//28 52//28
f 53//28 52//28 54//28
f 55//29 53//29 54//29
f 55//29 54//29 56//29
f 57//30 55//30 56//30
f 57//30 56//30 58//30
f 59//31 57//31 58//31
f 59//31 58//31 60//31
f 61//32 59//32 60//32
f 61//32 60//32 62//32
f 63//33 61//33 62//33
f 63//33 62//33 64//33
f 65//34 63//34 64//34
f 65//34 64//34 66//34
f 67//35 65//35 66//35
f 67//35 66//35 68//35
f 69//36 67//36 68//36
f 69//36 68//36 70//36
f 71//37 69//37 70//37
f 71//37 70//37 72//37
f 73//38 71//38 72//38
f 73//38 72//38 74//38
f 75//39 73//39 74//39
f 75//39 74//39 76//39
f 77//40 75//40 76//40
f 77//40 76//40 78//40
f 79//41 77//41 78//41
f 79//41 78//41 80//41
f 81//42 79//42 80//42
f 81//42 80//42 82//42
f 83//43 81//43 82//43
f 83//43 82//43 84//43
f 85//44 83//44 84//44
f 85//44 84//44 86//44
f 87//45 85//45 86//45
f 87//45 86//45 88//45
f 89//46 87//46 88//46
f 89//46 88//46 90//46
f 91//47 89//47 90//47
f 91//47 90//47 92//47
f 93//48 92//48 94//48
f 93//48 91//48 92//48
f 95//49 94//49 96//49
f 95//49 93//49 94//49
f 97//50 96//50 98//50
f 97//50 95//50 96//50
f 99//51 98//51 100//51
f 99//51 97//51 98//51
f 101//52 100//52 102//52
f 101//52 99//52 100//52
f 103//53 101//53 102//53
f 103//53 102//53 104//53
f 105//54 104//54 106//54
f 105//54 103//54 104//54
f 107//55 106//55 108//55
f 107//55 105//55 106//55
f 109//56 108//56 110//56
f 109//56 107//56 108//56
f 111//57 110//57 112//57
f 111//57 109//57 110//57
f 113//58 112//58 114//58
f 113//58 111//58 112//58
f 115//59 114//59 116//59
f 115//59 113//59 114//59
f 117//60 116//60 118//60
f 117//60 115//60 116//60
f 119//61 118//61 120//61
f 119//61 117//61 118//61
f 121//62 120//62 122//62
f 121//62 119//62 120//62
f 123//63 122//63 124//63
f 123//63 121//63 122//63
f 10//64 124//64 11//64
f 10//64 123//64 124//64
f 111//65 107//65 109//65
f 79//65 81//65 83//65
f 51//65 53//65 55//65
f 51//65 55//65 57//65
f 115//65 111//65 113//65
f 47//65 49//65 51//65
f 117//65 111//65 115//65
f 89//65 83//65 85//65
f 89//65 85//65 87//65
f 89//65 79//65 83//65
f 45//65 57//65 63//65
f 45//65 51//65 57//65
f 73//65 75//65 77//65
f 45//65 63//65 69//65
f 45//65 47//65 51//65
f 119//65 89//65 111//65
f 119//65 111//65 117//65
f 41//65 43//65 45//65
f 69//65 71//65 73//65
f 69//65 77//65 79//65
f 123//65 119//65 121//65
f 39//65 45//65 69//65
f 69//65 73//65 77//65
f 39//65 41//65 45//65
f 95//65 91//65 93//65
f 10//65 119//65 123//65
f 35//65 37//65 39//65
f 99//65 95//65 97//65
f 99//65 91//65 95//65
f 33//65 35//65 39//65
f 63//65 65//65 67//65
f 15//65 9//65 13//65
f 63//65 67//65 69//65
f 17//65 10//65 9//65
f 17//65 119//65 10//65
f 17//65 9//65 15//65
f 29//65 31//65 33//65
f 19//65 89//65 119//65
f 59//65 61//65 63//65
f 19//65 119//65 17//65
f 19//65 79//65 89//65
f 105//65 99//65 101//65
f 105//65 101//65 103//65
f 57//65 59//65 63//65
f 23//65 19//65 21//65
f 107//65 89//65 91//65
f 23//65 25//65 27//65
f 23//65 27//65 29//65
f 23//65 39//65 69//65
f 23//65 33//65 39//65
f 107//65 99//65 105//65
f 23//65 29//65 33//65
f 23//65 79//65 19//65
f 107//65 91//65 99//65
f 23//65 69//65 79//65
f 111//65 89//65 107//65
f 108//66 112//66 110//66
f 82//66 80//66 84//66
f 54//66 52//66 56//66
f 56//66 52//66 58//66
f 112//66 116//66 114//66
f 50//66 48//66 52//66
f 112//66 118//66 116//66
f 84//66 90//66 86//66
f 86//66 90//66 88//66
f 80//66 90//66 84//66
f 58//66 46//66 64//66
f 52//66 46//66 58//66
f 76//66 74//66 78//66
f 64//66 46//66 70//66
f 48//66 46//66 52//66
f 90//66 120//66 112//66
f 112//66 120//66 118//66
f 44//66 42//66 46//66
f 72//66 70//66 74//66
f 78//66 70//66 80//66
f 120//66 124//66 122//66
f 46//66 40//66 70//66
f 74//66 70//66 78//66
f 42//66 40//66 46//66
f 92//66 96//66 94//66
f 120//66 11//66 124//66
f 38//66 36//66 40//66
f 96//66 100//66 98//66
f 92//66 100//66 96//66
f 36//66 34//66 40//66
f 66//66 64//66 68//66
f 12//66 16//66 14//66
f 68//66 64//66 70//66
f 11//66 18//66 12//66
f 120//66 18//66 11//66
f 12//66 18//66 16//66
f 32//66 30//66 34//66
f 90//66 20//66 120//66
f 62//66 60//66 64//66
f 120//66 20//66 18//66
f 80//66 20//66 90//66
f 100//66 106//66 102//66
f 102//66 106//66 104//66
f 60//66 58//66 64//66
f 20//66 24//66 22//66
f 90//66 108//66 92//66
f 26//66 24//66 28//66
f 28//66 24//66 30//66
f 40//66 24//66 70//66
f 34//66 24//66 40//66
f 100//66 108//66 106//66
f 30//66 24//66 34//66
f 80//66 24//66 20//66
f 92//66 108//66 100//66
f 70//66 24//66 80//66
f 90//66 112//66 108//66
o Cylinder001
v 49.882759 40.000000 12.162382
v 50.000000 40.000000 10.000002
v 50.000000 50.000000 10.000002
v 49.882759 50.000000 12.162382
v 49.532410 40.000000 14.299411
v 49.532410 50.000000 14.299411
v 48.953064 40.000000 16.386032
v 48.953064 50.000000 16.386032
v 48.151508 40.000000 18.397783
v 48.151508 50.000000 18.397783
v 47.137142 40.000000 20.311079
v 47.137142 50.000000 20.311079
v 45.921860 40.000000 22.103485
v 45.921860 50.000000 22.103485
v 44.519909 40.000000 23.753990
v 44.519909 50.000000 23.753990
v 42.947727 40.000000 25.243242
v 42.947727 50.000000 25.243242
v 41.223740 40.000000 26.553782
v 41.223740 50.000000 26.553782
v 39.368168 40.000000 27.670242
v 39.368168 50.000000 27.670242
v 37.402763 40.000000 28.579536
v 37.402763 50.000000 28.579536
v 35.350567 40.000000 29.271002
v 35.350567 50.000000 29.271002
v 33.235641 40.000000 29.736532
v 33.235641 50.000000 29.736532
v 31.082779 40.000000 29.970671
v 31.082779 50.000000 29.970671
v 28.917221 40.000000 29.970671
v 28.917221 50.000000 29.970671
v 26.764360 40.000000 29.736532
v 26.764360 50.000000 29.736532
v 24.649433 40.000000 29.271002
v 24.649433 50.000000 29.271002
v 22.597237 40.000000 28.579536
v 22.597237 50.000000 28.579536
v 20.631830 40.000000 27.670242
v 20.631830 50.000000 27.670242
v 18.776258 40.000000 26.553782
v 18.776258 50.000000 26.553782
v 17.052275 40.000000 25.243242
v 17.052275 50.000000 25.243242
v 15.480090 40.000000 23.753990
v 15.480090 50.000000 23.753990
v 14.078139 40.000000 22.103485
v 14.078139 50.000000 22.103485
v 12.862856 40.000000 20.311079
v 12.862856 50.000000 20.311079
v 11.848492 40.000000 18.397783
v 11.848492 50.000000 18.397783
v 11.046937 40.000000 16.386032
v 11.046937 50.000000 16.386032
v 10.467589 40.000000 14.299411
v 10.467589 50.000000 14.299411
v 10.117241 40.000000 12.162382
v 10.117241 50.000000 12.162382
v 10.000000 40.000000 10.000002
v 10.000000 50.000000 10.000002
v 10.117241 40.000000 7.837622
v 10.117241 50.000000 7.837622
v 10.467589 40.000000 5.700593
v 10.467589 50.000000 5.700593
v 11.046937 40.000000 3.613971
v 11.046937 50.000000 3.613971
v 11.848492 40.000000 1.602220
v 11.848492 50.000000 1.602220
v 12.862856 40.000000 -0.311075
v 12.862856 50.000000 -0.311075
v 14.078139 40.000000 -2.103482
v 14.078139 50.000000 -2.103482
v 15.480090 40.000000 -3.753987
v 15.480090 50.000000 -3.753987
v 17.052275 40.000000 -5.243239
v 17.052275 50.000000 -5.243238
v 18.776258 40.000000 -6.553778
v 18.776258 50.000000 -6.553778
v 20.631830 40.000000 -7.670239
v 20.631830 50.000000 -7.670238
v 22.597237 40.000000 -8.579532
v 22.597237 50.000000 -8.579532
v 24.649433 40.000000 -9.270998
v 24.649433 50.000000 -9.270998
v 26.764360 40.000000 -9.736528
v 26.764360 50.000000 -9.736528
v 28.917221 40.000000 -9.970666
v 28.917221 50.000000 -9.970666
v 31.082779 40.000000 -9.970666
v 31.082779 50.000000 -9.970666
v 33.235641 40.000000 -9.736528
v 33.235641 50.000000 -9.736528
v 35.350567 40.000000 -9.270998
v 35.350567 50.000000 -9.270998
v 37.402763 40.000000 -8.579532
v 37.402763 50.000000 -8.579532
v 39.368168 40.000000 -7.670239
v 39.368168 50.000000 -7.670238
v 41.223740 40.000000 -6.553778
v 41.223740 50.000000 -6.553778
v 42.947727 40.000000 -5.243239
v 42.947727 50.000000 -5.243238
v 44.519909 40.000000 -3.753987
v 44.519909 50.000000 -3.753987
v 45.921860 40.000000 -2.103482
v 45.921860 50.000000 -2.103482
v 47.137142 40.000000 -0.311075
v 47.137142 50.000000 -0.311075
v 48.151508 40.000000 1.602220
v 48.151508 50.000000 1.602220
v 48.953064 40.000000 3.613971
v 48.953064 50.000000 3.613971
v 49.532410 40.000000 5.700593
v 49.532410 50.000000 5.700593
v 49.882759 40.000000 7.837622
v 49.882759 50.000000 7.837622
vn 0.9985 0.0000 0.0541
vn 0.9868 0.0000 0.1618
vn 0.9636 0.0000 0.2675
vn 0.9290 0.0000 0.3701
vn 0.8835 0.0000 0.4684
vn 0.8277 0.0000 0.5612
vn 0.7622 0.0000 0.6474
vn 0.6877 0.0000 0.7260
vn 0.6052 0.0000 0.7961
vn 0.5156 0.0000 0.8569
vn 0.4199 0.0000 0.9076
vn 0.3193 0.0000 0.9477
vn 0.2150 0.0000 0.9766
vn 0.1081 0.0000 0.9941
vn 0.0000 0.0000 1.0000
vn -0.1081 0.0000 0.9941
vn -0.2150 0.0000 0.9766
vn -0.3193 0.0000 0.9477
vn -0.4199 0.0000 0.9076
vn -0.5156 0.0000 0.8569
vn -0.6052 0.0000 0.7961
vn -0.6877 0.0000 0.7260
vn -0.7622 0.0000 0.6474
vn -0.8277 0.0000 0.5612
vn -0.8835 0.0000 0.4684
vn -0.9290 0.0000 0.3701
vn -0.9635 0.0000 0.2675
vn -0.9868 0.0000 0.1618
vn -0.9985 0.0000 0.0541
vn -0.9985 0.0000 -0.0541
vn -0.9868 -0.0000 -0.1618
vn -0.9636 0.0000 -0.2675
vn -0.9290 0.0000 -0.3701
vn -0.8835 -0.0000 -0.4684
vn -0.8277 0.0000 -0.5612
vn -0.7622 0.0000 -0.6474
vn -0.6877 0.0000 -0.7260
vn -0.6052 -0.0000 -0.7961
vn -0.5156 0.0000 -0.8569
vn -0.4199 -0.0000 -0.9076
vn -0.3193 0.0000 -0.9477
vn -0.2150 0.0000 -0.9766
vn -0.1081 0.0000 -0.9941
vn 0.0000 0.0000 -1.0000
vn 0.1081 0.0000 -0.9941
vn 0.2150 0.0000 -0.9766
vn 0.3193 0.0000 -0.9477
vn 0.4199 0.0000 -0.9076
vn 0.5156 0.0000 -0.8569
vn 0.6052 0.0000 -0.7961
vn 0.6877 0.0000 -0.7260
vn 0.7622 0.0000 -0.6474
vn 0.8277 0.0000 -0.5612
vn 0.8835 -0.0000 -0.4684
vn 0.9290 0.0000 -0.3701
vn 0.9636 0.0000 -0.2675
vn 0.9868 0.0000 -0.1618
vn 0.9985 0.0000 -0.0541
vn 0.0000 -1.0000 0.0000
vn 0.0000 1.0000 0.0000
vn 0.0000 1.0000 -0.0001
usemtl color_cccccc.001
s off
f 125//67 126//67 127//67
f 125//67 127//67 128//67
f 129//68 125//68 128//68
f 129//68 128//68 130//68
f 131//69 129//69 130//69
f 131//69 130//69 132//69
f 133//70 131//70 132//70
f 133//70 132//70 134//70
f 135//71 133//71 134//71
f 135//71 134//71 136//71
f 137//72 135//72 136//72
f 137//72 136//72 138//72
f 139//73 137//73 138//73
f 139//73 138//73 140//73
f 141//74 139//74 140//74
f 141//74 140//74 142//74
f 143//75 141//75 142//75
f 143//75 142//75 144//75
f 145//76 143//76 144//76
f 145//76 144//76 146//76
f 147//77 145//77 146//77
f 147//77 146//77 148//77
f 149//78 148//78 150//78
f 149//78 147//78 148//78
f 151//79 150//79 152//79
f 151//79 149//79 150//79
f 153//80 152//80 154//80
f 153//80 151//80 152//80
f 155//81 154//81 156//81
f 155//81 153//81 154//81
f 157//82 156//82 158//82
f 157//82 155//82 156//82
f 159//83 158//83 160//83
f 159//83 157//83 158//83
f 161//84 160//84 162//84
f 161//84 159//84 160//84
f 163//85 162//85 164//85
f 163//85 161//85 162//85
f 165//86 164//86 166//86
f 165//86 163//86 164//86
f 167//87 165//87 166//87
f 167//87 166//87 168//87
f 169//88 167//88 168//88
f 169//88 168//88 170//88
f 171//89 169//89 170//89
f 171//89 170//89 172//89
f 173//90 171//90 172//90
f 173//90 172//90 174//90
f 175//91 173//91 174//91
f 175//91 174//91 176//91
f 177//92 175//92 176//92
f 177//92 176//92 178//92
f 179//93 177//93 178//93
f 179//93 178//93 180//93
f 181//94 179//94 180//94
f 181//94 180//94 182//94
f 183//95 181//95 182//95
f 183//95 182//95 184//95
f 185//96 183//96 184//96
f 185//96 184//96 186//96
f 187//97 185//97 186//97
f 187//97 186//97 188//97
f 189//98 187//98 188//98
f 189//98 188//98 190//98
f 191//99 189//99 190//99
f 191//99 190//99 192//99
f 193//100 191//100 192//100
f 193//100 192//100 194//100
f 195//101 193//101 194//101
f 195//101 194//101 196//101
f 197//102 195//102 196//102
f 197//102 196//102 198//102
f 199//103 197//103 198//103
f 199//103 198//103 200//103
f 201//104 199//104 200//104
f 201//104 200//104 202//104
f 203//105 201//105 202//105
f 203//105 202//105 204//105
f 205//106 203//106 204//106
f 205//106 204//106 206//106
f 207//107 205//107 206//107
f 207//107 206//107 208//107
f 209//108 208//108 210//108
f 209//108 207//108 208//108
f 211//109 210//109 212//109
f 211//109 209//109 210//109
f 213//110 212//110 214//110
f 213//110 211//110 212//110
f 215//111 214//111 216//111
f 215//111 213//111 214//111
f 217//112 216//112 218//112
f 217//112 215//112 216//112
f 219//113 217//113 218//113
f 219//113 218//113 220//113
f 221//114 220//114 222//114
f 221//114 219//114 220//114
f 223//115 222//115 224//115
f 223//115 221//115 222//115
f 225//116 224//116 226//116
f 225//116 223//116 224//116
f 227//117 226//117 228//117
f 227//117 225//117 226//117
f 229//118 228//118 230//118
f 229//118 227//118 228//118
f 231//119 230//119 232//119
f 231//119 229//119 230//119
f 233//120 232//120 234//120
f 233//120 231//120 232//120
f 235//121 234//121 236//121
f 235//121 233//121 234//121
f 237//122 236//122 238//122
f 237//122 235//122 236//122
f 239//123 238//123 240//123
f 239//123 237//123 238//123
f 126//124 240//124 127//124
f 126//124 239//124 240//124
f 167//125 171//125 173//125
f 195//125 197//125 199//125
f 231//125 227//125 229//125
f 193//125 195//125 199//125
f 163//125 173//125 179//125
f 163//125 167//125 173//125
f 203//125 199//125 201//125
f 163//125 165//125 167//125
f 233//125 227//125 231//125
f 203//125 193//125 199//125
f 235//125 215//125 227//125
f 205//125 193//125 203//125
f 235//125 227//125 233//125
f 189//125 191//125 193//125
f 235//125 193//125 205//125
f 235//125 185//125 193//125
f 235//125 205//125 215//125
f 157//125 159//125 161//125
f 185//125 187//125 189//125
f 239//125 235//125 237//125
f 185//125 189//125 193//125
f 155//125 157//125 161//125
f 155//125 161//125 163//125
f 211//125 207//125 209//125
f 126//125 235//125 239//125
f 151//125 153//125 155//125
f 215//125 205//125 207//125
f 215//125 211//125 213//125
f 215//125 207//125 211//125
f 179//125 181//125 183//125
f 149//125 151//125 155//125
f 179//125 183//125 185//125
f 131//125 125//125 129//125
f 133//125 126//125 125//125
f 219//125 215//125 217//125
f 133//125 163//125 179//125
f 133//125 155//125 163//125
f 133//125 235//125 126//125
f 133//125 185//125 235//125
f 133//125 149//125 155//125
f 133//125 125//125 131//125
f 133//125 179//125 185//125
f 221//125 215//125 219//125
f 135//125 149//125 133//125
f 173//125 175//125 177//125
f 173//125 177//125 179//125
f 141//125 143//125 145//125
f 141//125 145//125 147//125
f 141//125 147//125 149//125
f 139//125 135//125 137//125
f 139//125 149//125 135//125
f 139//125 141//125 149//125
f 227//125 221//125 223//125
f 227//125 223//125 225//125
f 227//125 215//125 221//125
f 167//125 169//125 171//125
f 172//126 168//126 174//126
f 198//126 196//126 200//126
f 228//126 232//126 230//126
f 196//126 194//126 200//126
f 174//126 164//126 180//126
f 168//126 164//126 174//126
f 200//126 204//126 202//126
f 166//126 164//126 168//126
f 228//126 234//126 232//126
f 194//126 204//126 200//126
f 216//126 236//126 228//126
f 194//126 206//126 204//126
f 228//126 236//126 234//126
f 192//126 190//126 194//126
f 194//126 236//126 206//126
f 186//126 236//126 194//126
f 206//126 236//126 216//126
f 160//127 158//127 162//127
f 188//126 186//126 190//126
f 236//126 240//126 238//126
f 190//126 186//126 194//126
f 158//126 156//126 162//126
f 162//126 156//126 164//126
f 208//126 212//126 210//126
f 236//126 127//126 240//126
f 154//126 152//126 156//126
f 206//126 216//126 208//126
f 212//126 216//126 214//126
f 208//126 216//126 212//126
f 182//126 180//126 184//126
f 152//126 150//126 156//126
f 184//126 180//126 186//126
f 128//126 132//126 130//126
f 127//126 134//126 128//126
f 216//126 220//126 218//126
f 164//126 134//126 180//126
f 156//126 134//126 164//126
f 236//126 134//126 127//126
f 186//126 134//126 236//126
f 150//126 134//126 156//126
f 128//126 134//126 132//126
f 180//126 134//126 186//126
f 216//126 222//126 220//126
f 150//126 136//126 134//126
f 176//126 174//126 178//126
f 178//126 174//126 180//126
f 144//126 142//126 146//126
f 146//126 142//126 148//126
f 148//126 142//126 150//126
f 136//126 140//126 138//126
f 150//126 140//126 136//126
f 142//126 140//126 150//126
f 222//126 228//126 224//126
f 224//126 228//126 226//126
f 216//126 228//126 222//126
f 170//126 168//126 172//126
